# xmcd
#
# Track frame offsets: 
#        150
#        13406
#        25023
#        35529
#        43706
#        54242
#        64541
#        76529
#        84805
#        96378
#        105658
#        116394
#        128317
#        140799
#        152928
#        162975
#        175137
#        186087
#        198313
#        209208
#
# Disc length: 2932 seconds
#
# Revision: 0
# Processed by: cddbd v1.5.2PL0 Copyright (c) Steve Scherf et al.
# Submitted via: ExactAudioCopy v0.99pb5
#
DISCID=050b7214
DTITLE=Various Artist - Northern Soul - All nighter - CD2
DYEAR=2014
DGENRE=Soul/Northern Soul
TTITLE0=Richard Berry and The Pharaohs - Have Love Will Travel
TTITLE1=Roy Hamilton - Earthquake
TTITLE2=The Falcons - Has It Happened To You Yet
TTITLE3=Charles Sheffield - It's Your Voodoo Working
TTITLE4=Wilson Pickett - My Heart Belongs To You
TTITLE5=Irma Thomas - Don't Mess With My Man
TTITLE6=The Charmaines - Where Is The Boy Tonight
TTITLE7=The Destinations - Come On Let Me Love You
TTITLE8=Sherri Taylor - He's The One That Rings My Bell
TTITLE9=Hank Levine and Orchestra - Image (Part 2)
TTITLE10=Eddie Holland - Jamie
TTITLE11=The 5 Royales - It Hurts Inside
TTITLE12=Fats Domino - It Keeps Rainin'
TTITLE13=Mel Tormé - Comin' Home Baby
TTITLE14=The Tonettes - Stolen Angel
TTITLE15=Harvey Fuqua - Any Way You Wanta
TTITLE16=The Blue-Belles - I Sold My Heart To The Junkman
TTITLE17=The Miracles - If Your Mother Only Knew
TTITLE18=Eddie Floyd - A Deed To Your Heart
TTITLE19=The Pentagons - I Wonder (If Your Love Will Ever Belong To Me
TTITLE19=)
EXTD=
EXTT0=
EXTT1=
EXTT2=
EXTT3=
EXTT4=
EXTT5=
EXTT6=
EXTT7=
EXTT8=
EXTT9=
EXTT10=
EXTT11=
EXTT12=
EXTT13=
EXTT14=
EXTT15=
EXTT16=
EXTT17=
EXTT18=
EXTT19=
PLAYORDER=
